<?xml version="1.0" encoding="UTF-8"?>
<svg id="Layer_2" xmlns="http://www.w3.org/2000/svg" viewBox="0 0 99.64 168.75">
  <defs>
    <style>
      .cls-1 {
        fill: #2252cc;
      }
    </style>
  </defs>
  <g id="Layer_1-2">
    <g>
      <path class="cls-1" d="M88.75.32c-.1-.1-.21-.21-.31-.31-.31.18-.68.3-.92.54-.85.89-1.63,1.84-2.46,2.75-2.77,3.02-5.55,6.04-8.32,9.05-2.86,3.1-5.72,6.2-8.58,9.3-3.11,3.36-6.22,6.72-9.32,10.09-2.81,3.04-5.6,6.09-8.41,9.13-3.13,3.39-6.28,6.77-9.42,10.16-3.22,3.47-6.45,6.94-9.67,10.42-3.06,3.3-6.1,6.61-9.17,9.9-3.39,3.64-6.78,7.28-10.19,10.9-2.89,3.08-5.82,6.12-8.72,9.19-.98,1.04-1.94,2.11-2.86,3.2-.21.25-.24.64-.4,1.1h1.28c10.1,0,20.2-.09,30.29.05,2.09.03,3.1-.71,4.02-2.44,2.06-3.9,4.29-7.71,6.48-11.53,4.52-7.88,9.07-15.75,13.59-23.64,3.12-5.44,6.18-10.92,9.29-16.36,4.63-8.1,9.28-16.18,13.93-24.27,2.18-3.79,4.38-7.56,6.55-11.34,1.12-1.95,2.22-3.92,3.32-5.88h0ZM99.63,75.15c-.43-.13-.51-.18-.58-.18-10.46.01-20.91.04-31.37.03-.88,0-1.36.32-1.77,1.08-6.93,12.47-13.88,24.92-20.84,37.37-9.16,16.38-18.33,32.75-27.49,49.13-1.12,2.01-2.24,4.01-3.44,6.16.4-.02.71.05.82-.06,28.2-31.13,56.39-62.27,84.68-93.53h-.01Z"/>
      <path class="cls-1" d="M88.75.32c-1.11,1.96-2.2,3.93-3.32,5.88-2.18,3.79-4.38,7.56-6.55,11.34-4.65,8.08-9.3,16.17-13.93,24.27-3.11,5.44-6.18,10.92-9.29,16.36-4.52,7.89-9.07,15.75-13.59,23.64-2.19,3.83-4.42,7.63-6.48,11.53-.91,1.73-1.92,2.47-4.02,2.44-10.1-.14-20.19-.06-30.29-.05H0c.16-.45.19-.85.4-1.1.92-1.09,1.88-2.16,2.86-3.2,2.9-3.07,5.82-6.12,8.72-9.19,3.41-3.62,6.8-7.26,10.19-10.9,3.06-3.29,6.11-6.6,9.17-9.9,3.22-3.47,6.45-6.94,9.67-10.42,3.14-3.38,6.28-6.77,9.42-10.16,2.81-3.04,5.6-6.09,8.41-9.13,3.11-3.36,6.22-6.72,9.32-10.09,2.86-3.1,5.72-6.2,8.58-9.3,2.78-3.02,5.56-6.03,8.32-9.05.83-.91,1.62-1.85,2.46-2.75.24-.25.61-.37.92-.54.1.1.21.21.31.31h0Z"/>
      <path class="cls-1" d="M99.63,75.15c-28.3,31.26-56.48,62.41-84.68,93.53-.1.12-.42.04-.82.06,1.2-2.15,2.32-4.16,3.44-6.16,9.16-16.38,18.33-32.75,27.49-49.13,6.96-12.45,13.91-24.91,20.84-37.37.42-.75.89-1.08,1.77-1.08,10.46,0,20.91-.02,31.37-.03.07,0,.15.04.58.18h.01Z"/>
    </g>
  </g>
</svg>